<svg width="22" height="22" viewBox="0 0 22 22" fill="none" xmlns="http://www.w3.org/2000/svg">
<path fill-rule="evenodd" clip-rule="evenodd" d="M11 0.916656C5.43127 0.916656 0.916687 5.43124 0.916687 11C0.916687 16.5687 5.43127 21.0833 11 21.0833C16.5688 21.0833 21.0834 16.5687 21.0834 11C21.0834 5.43124 16.5688 0.916656 11 0.916656ZM8.97694 7.98141C8.80996 7.80852 8.71757 7.57697 8.71965 7.33662C8.72174 7.09628 8.81815 6.86636 8.9881 6.69641C9.15806 6.52645 9.38797 6.43004 9.62832 6.42796C9.86867 6.42587 10.1002 6.51826 10.2731 6.68524L13.9398 10.3519C14.1116 10.5238 14.2082 10.7569 14.2082 11C14.2082 11.2431 14.1116 11.4762 13.9398 11.6481L10.2731 15.3147C10.1002 15.4817 9.86867 15.5741 9.62832 15.572C9.38797 15.5699 9.15806 15.4735 8.9881 15.3036C8.81815 15.1336 8.72174 14.9037 8.71965 14.6634C8.71757 14.423 8.80996 14.1915 8.97694 14.0186L11.9955 11L8.97694 7.98141Z" fill="#0074B5"/>
</svg>
